# xmcd CD database file
#
# Track frame offsets:
#	150
#	2877
#	35470
#	58718
#	90978
#	109585
#	139530
#	161280
#	179606
#	198057
#	217851
#	241006
#	283449
#
# Disc length: 3932 seconds
#
# Revision: 2
# Processed by: cddbd v1.5.2PL0 Copyright (c) Steve Scherf et al.
# Submitted via: CDex 1.51
#
DISCID=a50f5a0d
DTITLE=Billy Branch and Carlos Johnson - Don't Mess With The Bluesmen
DYEAR=1900
DGENRE=Blues
TTITLE0=Running From The Devil
TTITLE1=Don't Throw Your Love On Me So Strong
TTITLE2=Don't Mess With The Bluesman
TTITLE3=Going To New York
TTITLE4=Escape
TTITLE5=Shade Tree Mechanic
TTITLE6=Hello There
TTITLE7=Hey Pretty Baby
TTITLE8=Summertime
TTITLE9=My Babe
TTITLE10=Blues After The Pain
TTITLE11=Real Mother For Ya
TTITLE12=Cognac For Breakfast
EXTD=
EXTT0=
EXTT1=
EXTT2=
EXTT3=
EXTT4=
EXTT5=
EXTT6=
EXTT7=
EXTT8=
EXTT9=
EXTT10=
EXTT11=
EXTT12=
PLAYORDER=
